# xmcd
#
# Track frame offsets:
#	150
#	15124
#	28512
#	46448
#	60186
#	75898
#	90228
#	103811
#	118939
#	132019
#	146196
#	163675
#	176328
#	196581
#
# Disc length: 2854 seconds
#
# Revision: 1
# Processed by: cddbd v1.5.1PL0 Copyright (c) Steve Scherf et al.
# Submitted via: EasyCDDAExtractor 6.0.0.1
#
DISCID=9e0b240e
DTITLE=Savia Andina - Corazón De America
DYEAR=1900
DGENRE=
TTITLE0=Curahuara De Caranas
TTITLE1=Caminito Amigo
TTITLE2=Saucecito Palo Verde
TTITLE3=Prometo Amarte
TTITLE4=Mi Desventura
TTITLE5=Marujita
TTITLE6=Urkupiña
TTITLE7=Lagrimas
TTITLE8=Basta Ya
TTITLE9=Vida Mia
TTITLE10=Piel Chaqueña
TTITLE11=Estefania
TTITLE12=No Todo Es Triste
TTITLE13=Presentimiento
EXTD=
EXTT0=
EXTT1=
EXTT2=
EXTT3=
EXTT4=
EXTT5=
EXTT6=
EXTT7=
EXTT8=
EXTT9=
EXTT10=
EXTT11=
EXTT12=
EXTT13=
PLAYORDER=
